<svg id="Layer_1" data-name="Layer 1" xmlns="http://www.w3.org/2000/svg" viewBox="0 0 260.44 159.9">
  <defs>
    <style>
      .cls-1 {
        fill: none;
        stroke: #FFB147;
        stroke-miterlimit: 10;
        stroke-width: 4px;
      }
    </style>
  </defs>
  <path d="m7.41,70.34c-1.14-3.31-1.71-7.43-1.71-13.26s.57-9.94,1.71-13.26c3.31-10.29,12.23-15.66,23.89-15.66,9.49,0,16.92,4.34,20.92,10.4.34.57.34,1.14-.23,1.6l-9.94,6.51c-.69.46-1.26.34-1.71-.23-2.4-3.31-4.8-4.8-8.8-4.8-4.23,0-7.31,1.94-8.57,5.94-.8,2.29-1.03,4.91-1.03,9.49s.23,7.2,1.03,9.49c1.26,4,4.34,5.94,8.57,5.94,4,0,6.4-1.49,8.8-4.8.46-.57,1.03-.69,1.71-.23l9.94,6.51c.57.46.57,1.03.23,1.6-4,6.06-11.43,10.4-20.92,10.4-11.66,0-20.57-5.37-23.89-15.66Z"/>
  <path d="m64.55,84.75c-.69,0-1.14-.46-1.14-1.14V30.57c0-.69.46-1.14,1.14-1.14h13.71c.69,0,1.14.46,1.14,1.14v4.69h.11c2.63-4.46,7.66-7.09,14.4-7.09,3.66,0,7.31,1.26,9.71,3.31.57.46.69.91.34,1.6l-6.4,11.66c-.46.57-.91.57-1.6.23-2.63-1.71-5.26-2.63-8-2.51-5.94.23-8.57,4.57-8.57,12v29.14c0,.69-.46,1.14-1.14,1.14h-13.71Z"/>
  <path d="m141.81,84.75c-.69,0-1.14-.46-1.14-1.14v-3.66h-.11c-2.86,3.66-7.66,6.06-15.2,6.06-9.83,0-18.4-5.14-18.4-16.92s9.26-17.83,22.97-17.83h9.83c.46,0,.69-.23.69-.69v-2.06c0-5.14-2.51-7.54-11.31-7.54-5.6,0-9.71,1.6-12.34,3.54-.57.46-1.14.34-1.49-.23l-5.14-9.03c-.34-.69-.23-1.26.34-1.6,4.69-3.31,11.43-5.49,20.57-5.49,18.06,0,24.57,6.17,24.57,20v35.43c0,.69-.46,1.14-1.14,1.14h-12.69Zm-1.37-18.4v-3.77c0-.46-.23-.69-.69-.69h-7.77c-6.74,0-9.83,1.94-9.83,6.29,0,3.89,2.74,5.83,8,5.83,6.86,0,10.29-2.51,10.29-7.66Z"/>
  <path d="m174.61,84.75c-.69,0-1.14-.46-1.14-1.14v-41.71c0-.46-.23-.69-.69-.69h-9.03c-.69,0-1.14-.46-1.14-1.14v-9.49c0-.69.46-1.14,1.14-1.14h9.03c.46,0,.69-.23.69-.69v-2.74c0-4.69-1.26-5.94-6.29-5.94h-3.54c-.69,0-1.14-.46-1.14-1.14v-10.74c0-.69.46-1.14,1.14-1.14h6.29c13.14,0,19.43,5.6,19.43,19.09v2.63c0,.46.23.69.69.69h3.43c.69,0,1.14.46,1.14,1.14v9.49c0,.69-.46,1.14-1.14,1.14h-3.43c-.46,0-.69.23-.69.69v41.71c0,.69-.46,1.14-1.14,1.14h-13.6Z"/>
  <g>
    <path d="m83.67,135.48c-1.26-4-1.83-7.89-1.83-13.37s.57-9.37,1.83-13.37c3.2-10.06,12.34-15.54,24-15.54s20.8,5.49,24,15.54c1.26,4,1.83,7.89,1.83,13.37s-.57,9.37-1.83,13.37c-3.2,10.06-12.34,15.54-24,15.54s-20.8-5.49-24-15.54Zm32.57-3.89c.8-2.51,1.03-4.8,1.03-9.49s-.23-6.97-1.03-9.49c-1.26-3.89-4.34-5.94-8.57-5.94s-7.31,2.06-8.57,5.94c-.8,2.51-1.03,4.8-1.03,9.49s.23,6.97,1.03,9.49c1.26,3.89,4.34,5.94,8.57,5.94s7.31-2.06,8.57-5.94Z"/>
    <path d="m175.55,149.77c-.69,0-1.14-.46-1.14-1.14v-31.77c0-6.06-2.86-10.06-8.57-10.06s-8.69,4-8.69,10.06v31.77c0,.69-.46,1.14-1.14,1.14h-13.71c-.69,0-1.14-.46-1.14-1.14v-53.03c0-.69.46-1.14,1.14-1.14h13.71c.69,0,1.14.46,1.14,1.14v3.89h.11c2.51-3.43,7.2-6.29,14.29-6.29,12.23,0,18.86,8.46,18.86,20.57v34.86c0,.69-.46,1.14-1.14,1.14h-13.71Z"/>
  </g>
  <path d="m53.82,150.82c-13.99,0-26.26-10.28-28.34-24.52-1.88-12.89,5.18-25.05,16.47-30.21l-.42-2.9,15.83-2.31,2.56,17.6-7.56,1.1c-6.73.98-11.78,6.99-11.13,13.76.69,7.24,7.3,12.37,14.42,11.33,2.49-.36,12.77-.44,19.61-8.15v4.06c0,9.99-7.33,18.47-17.21,19.91-.03,0-.07,0-.1.01-1.39.2-2.78.3-4.15.3Z"/>
  <g id="BcGWf2">
    <g>
      <path d="m237.84,25.61c1.22-1.4,2.36-1.69,4.04-1,1.94.79,3.88,1.6,5.81,2.41,1.69.72,2.37,2.43,1.65,4.13-1.39,3.27-2.79,6.54-4.2,9.81-.68,1.59-2.34,2.3-3.95,1.66-2.1-.84-4.19-1.71-6.27-2.6-1.58-.67-2.22-2.39-1.54-3.98.2-.47.2-.48-.32-.46-1.19.05-1.95.79-2.6,1.67-.79,1.07-1.31,2.29-1.92,3.47-.27.53-.52,1.07-.8,1.59-.53.96-1.7,1.41-2.72,1-2.15-.88-4.29-1.78-6.42-2.7-1.03-.45-1.49-1.53-1.2-2.68.27-1.07.43-2.16.69-3.22.42-1.71-.22-3.06-1.24-4.34-1.62-2.04-3.79-2.62-6.27-2.42-2.09.17-3.96.85-5.52,2.29-.79.73-1.86.82-2.72.3-.87-.54-1.22-1.5-.98-2.55.84-3.63,3.05-6.21,6.18-8.07,3.37-2.01,7.07-2.58,10.92-2.41,4.29.19,8.46.98,12.46,2.59,1.67.67,3.27,1.5,4.81,2.44.87.53,1.42,1.33,1.77,2.27.1.26.21.52.33.81Z"/>
      <path d="m225.93,47.45c.42,1.02.43,2.12.01,3.23-4.07,10.7-8.15,21.4-12.22,32.1-.51,1.33-1.27,2.42-2.63,2.98-1.12.46-2.26.49-3.38.02-2.37-.99-4.75-1.99-7.1-3.03-2.53-1.12-3.48-3.67-2.31-6.19,2.45-5.27,4.93-10.53,7.39-15.8,2.37-5.06,4.75-10.12,7.11-15.19.56-1.21,1.34-2.16,2.61-2.65,1.07-.42,2.16-.44,3.22,0,1.68.68,3.36,1.38,5.02,2.11,1.06.47,1.81,1.27,2.28,2.43Z"/>
    </g>
  </g>
  <line class="cls-1" x1="47.12" y1="79.22" x2="49.2" y2="93.51"/>
</svg>